<svg width="1080" height="740" viewBox="0 0 1080 740" fill="none" xmlns="http://www.w3.org/2000/svg">
  <rect width="1080" height="740" rx="36" fill="#09090B"/>
  <rect x="28" y="28" width="312" height="684" rx="28" fill="#121216"/>
  <rect x="368" y="28" width="684" height="684" rx="28" fill="#121216"/>
  <rect x="62" y="62" width="108" height="8" rx="4" fill="#71717A"/>
  <rect x="62" y="78" width="178" height="20" rx="10" fill="#F4F4F5"/>
  <rect x="62" y="128" width="244" height="80" rx="20" fill="#27272A"/>
  <rect x="62" y="224" width="244" height="80" rx="20" fill="#18181B"/>
  <rect x="62" y="320" width="244" height="80" rx="20" fill="#18181B"/>
  <rect x="62" y="416" width="244" height="80" rx="20" fill="#18181B"/>
  <rect x="62" y="512" width="244" height="80" rx="20" fill="#18181B"/>
  <rect x="62" y="608" width="244" height="70" rx="20" fill="#18181B"/>
  <rect x="82" y="150" width="106" height="8" rx="4" fill="#F4F4F5"/>
  <rect x="82" y="166" width="70" height="8" rx="4" fill="#71717A"/>
  <rect x="82" y="246" width="120" height="8" rx="4" fill="#F4F4F5"/>
  <rect x="82" y="262" width="88" height="8" rx="4" fill="#71717A"/>
  <rect x="82" y="342" width="102" height="8" rx="4" fill="#F4F4F5"/>
  <rect x="82" y="358" width="90" height="8" rx="4" fill="#71717A"/>
  <rect x="402" y="62" width="116" height="8" rx="4" fill="#71717A"/>
  <rect x="402" y="78" width="184" height="22" rx="11" fill="#F4F4F5"/>
  <rect x="402" y="128" width="616" height="180" rx="24" fill="#18181B"/>
  <rect x="446" y="176" width="528" height="84" rx="20" fill="#0F1014"/>
  <path d="M574 226H648M650 226L694 186M650 226L694 266M760 184H814M838 184L878 266M918 184H984" stroke="#F4F4F5" stroke-width="12" stroke-linecap="round" stroke-linejoin="round"/>
  <rect x="402" y="332" width="298" height="344" rx="24" fill="#18181B"/>
  <rect x="720" y="332" width="298" height="344" rx="24" fill="#18181B"/>
  <rect x="438" y="366" width="118" height="8" rx="4" fill="#71717A"/>
  <rect x="438" y="382" width="182" height="20" rx="10" fill="#F4F4F5"/>
  <rect x="438" y="426" width="226" height="22" rx="11" fill="#27272A"/>
  <rect x="438" y="462" width="226" height="22" rx="11" fill="#27272A"/>
  <rect x="438" y="498" width="226" height="22" rx="11" fill="#27272A"/>
  <rect x="438" y="546" width="226" height="90" rx="18" fill="#0F1014"/>
  <rect x="756" y="366" width="118" height="8" rx="4" fill="#71717A"/>
  <rect x="756" y="382" width="174" height="20" rx="10" fill="#F4F4F5"/>
  <rect x="756" y="426" width="226" height="58" rx="18" fill="#27272A"/>
  <rect x="756" y="500" width="226" height="58" rx="18" fill="#27272A"/>
  <rect x="756" y="574" width="226" height="58" rx="18" fill="#27272A"/>
</svg>
