<svg width="1080" height="740" viewBox="0 0 1080 740" fill="none" xmlns="http://www.w3.org/2000/svg">
  <rect width="1080" height="740" rx="36" fill="#09090B"/>
  <rect x="28" y="28" width="344" height="684" rx="28" fill="#121216"/>
  <rect x="396" y="28" width="656" height="684" rx="28" fill="#121216"/>
  <rect x="62" y="62" width="96" height="8" rx="4" fill="#71717A"/>
  <rect x="62" y="78" width="180" height="20" rx="10" fill="#F4F4F5"/>
  <rect x="62" y="126" width="276" height="118" rx="22" fill="#18181B"/>
  <rect x="62" y="268" width="276" height="190" rx="22" fill="#18181B"/>
  <rect x="62" y="482" width="276" height="196" rx="22" fill="#18181B"/>
  <rect x="86" y="154" width="88" height="8" rx="4" fill="#71717A"/>
  <rect x="86" y="170" width="72" height="20" rx="10" fill="#F4F4F5"/>
  <rect x="86" y="208" width="228" height="12" rx="6" fill="#27272A"/>
  <rect x="86" y="298" width="78" height="8" rx="4" fill="#71717A"/>
  <rect x="86" y="314" width="132" height="20" rx="10" fill="#F4F4F5"/>
  <rect x="86" y="354" width="228" height="34" rx="17" fill="#27272A"/>
  <rect x="86" y="400" width="228" height="34" rx="17" fill="#27272A"/>
  <rect x="86" y="512" width="96" height="8" rx="4" fill="#71717A"/>
  <rect x="86" y="528" width="110" height="20" rx="10" fill="#F4F4F5"/>
  <rect x="86" y="572" width="228" height="24" rx="12" fill="#27272A"/>
  <rect x="86" y="608" width="228" height="24" rx="12" fill="#27272A"/>
  <rect x="430" y="62" width="112" height="8" rx="4" fill="#71717A"/>
  <rect x="430" y="78" width="220" height="20" rx="10" fill="#F4F4F5"/>
  <rect x="866" y="70" width="70" height="24" rx="12" fill="#27272A"/>
  <rect x="948" y="70" width="70" height="24" rx="12" fill="#F4F4F5"/>
  <rect x="430" y="128" width="588" height="200" rx="26" fill="#18181B"/>
  <rect x="466" y="164" width="118" height="8" rx="4" fill="#71717A"/>
  <rect x="466" y="180" width="320" height="20" rx="10" fill="#F4F4F5"/>
  <rect x="466" y="224" width="516" height="24" rx="12" fill="#27272A"/>
  <rect x="466" y="264" width="516" height="24" rx="12" fill="#27272A"/>
  <rect x="466" y="360" width="552" height="318" rx="26" fill="#18181B"/>
  <rect x="502" y="396" width="132" height="8" rx="4" fill="#71717A"/>
  <rect x="502" y="412" width="286" height="20" rx="10" fill="#F4F4F5"/>
  <rect x="502" y="456" width="480" height="70" rx="22" fill="#0F1014"/>
  <rect x="524" y="478" width="18" height="18" rx="9" stroke="#F4F4F5" stroke-width="4"/>
  <rect x="560" y="480" width="234" height="10" rx="5" fill="#F4F4F5"/>
  <rect x="502" y="542" width="480" height="70" rx="22" fill="#23362F"/>
  <rect x="524" y="564" width="18" height="18" rx="9" fill="#F4F4F5"/>
  <rect x="560" y="566" width="250" height="10" rx="5" fill="#F4F4F5"/>
  <rect x="502" y="628" width="136" height="20" rx="10" fill="#F4F4F5"/>
</svg>
